<?xml version="1.0" encoding="UTF-8"?>
<svg version="1.1" xmlns="http://www.w3.org/2000/svg" width="256" height="256">
<path d="M0 0 C0.95469177 -0.00570007 1.90938354 -0.01140015 2.89300537 -0.01727295 C4.9065238 -0.02666142 6.92005717 -0.03323222 8.93359375 -0.03710938 C11.93518852 -0.04671755 14.93606809 -0.07776018 17.9375 -0.109375 C35.05776446 -0.20340614 52.02382755 1.34123146 68.671875 5.515625 C69.5268457 5.72509766 70.38181641 5.93457031 71.26269531 6.15039062 C79.07718901 8.145705 86.40868714 10.82552108 93.734375 14.203125 C94.58128906 14.59113281 95.42820313 14.97914062 96.30078125 15.37890625 C104.13157425 19.34196845 111.72550586 25.02696835 115.11577034 33.2886219 C116.09988389 36.33432874 116.12433274 39.20150011 116.13842773 42.38842773 C116.14529099 43.06910309 116.15215424 43.74977844 116.15922546 44.45108032 C116.17738419 46.67984444 116.17367199 48.90789723 116.16796875 51.13671875 C116.17253585 52.69938889 116.17784299 54.26205703 116.18385315 55.82472229 C116.19276279 59.09197169 116.19038582 62.35897638 116.18041992 65.6262207 C116.16893324 69.79680248 116.18914732 73.96653715 116.21833706 78.13700771 C116.23675301 81.36197707 116.23639593 84.58674544 116.23069954 87.81175423 C116.23054698 89.34862519 116.23653685 90.88551035 116.24899101 92.42233086 C116.31498157 101.89948096 116.16530966 109.0944183 109.69140625 116.55859375 C97.23117671 127.203125 97.23117671 127.203125 91.734375 127.203125 C91.734375 127.863125 91.734375 128.523125 91.734375 129.203125 C92.6109375 129.45835937 93.4875 129.71359375 94.390625 129.9765625 C102.87995631 133.09063964 110.19601986 139.39091825 114.734375 147.203125 C115.87811927 150.63435782 115.88241847 153.31454574 115.91137695 156.93432617 C115.92123375 157.95446304 115.92123375 157.95446304 115.93128967 158.99520874 C115.95099507 161.24550494 115.96268097 163.49573438 115.97265625 165.74609375 C115.97673178 166.51666925 115.9808073 167.28724476 115.98500633 168.08117104 C116.00585842 172.16226558 116.02016209 176.24332662 116.02954102 180.32446289 C116.04058506 184.52646836 116.0749637 188.7279413 116.11471272 192.92975903 C116.14094423 196.17184895 116.14923876 199.41381344 116.15282249 202.65600014 C116.15767405 204.20405982 116.16924705 205.75211443 116.18786049 207.30006981 C116.30324767 217.53475016 115.69143998 224.48971889 109.046875 232.640625 C88.44692492 251.75668037 52.33342698 256.27732497 25.46875 256.40625 C24.51405823 256.41195007 23.55936646 256.41765015 22.57574463 256.42352295 C20.5622262 256.43291142 18.54869283 256.43948222 16.53515625 256.44335938 C13.53356148 256.45296755 10.53268191 256.48401018 7.53125 256.515625 C-9.58901446 256.60965614 -26.55507755 255.06501854 -43.203125 250.890625 C-44.0580957 250.68115234 -44.91306641 250.47167969 -45.79394531 250.25585938 C-53.60843901 248.260545 -60.93993714 245.58072892 -68.265625 242.203125 C-69.53599609 241.62111328 -69.53599609 241.62111328 -70.83203125 241.02734375 C-78.66282425 237.06428155 -86.25675586 231.37928165 -89.64702034 223.1176281 C-90.63113389 220.07192126 -90.65558274 217.20474989 -90.66967773 214.01782227 C-90.67654099 213.33714691 -90.68340424 212.65647156 -90.69047546 211.95516968 C-90.70863419 209.72640556 -90.70492199 207.49835277 -90.69921875 205.26953125 C-90.70378585 203.70686111 -90.70909299 202.14419297 -90.71510315 200.58152771 C-90.72401279 197.31427831 -90.72163582 194.04727362 -90.71166992 190.7800293 C-90.70018324 186.60944752 -90.72039732 182.43971285 -90.74958706 178.26924229 C-90.76800301 175.04427293 -90.76764593 171.81950456 -90.76194954 168.59449577 C-90.76179698 167.05762481 -90.76778685 165.52073965 -90.78024101 163.98391914 C-90.84623157 154.50676904 -90.69655966 147.3118317 -84.22265625 139.84765625 C-71.76242671 129.203125 -71.76242671 129.203125 -66.265625 129.203125 C-66.265625 128.543125 -66.265625 127.883125 -66.265625 127.203125 C-67.58046875 126.82027344 -67.58046875 126.82027344 -68.921875 126.4296875 C-77.41120631 123.31561036 -84.72726986 117.01533175 -89.265625 109.203125 C-90.40936927 105.77189218 -90.41366847 103.09170426 -90.44262695 99.47192383 C-90.44919815 98.79183258 -90.45576935 98.11174133 -90.46253967 97.41104126 C-90.48224507 95.16074506 -90.49393097 92.91051562 -90.50390625 90.66015625 C-90.50798178 89.88958075 -90.5120573 89.11900524 -90.51625633 88.32507896 C-90.53710842 84.24398442 -90.55141209 80.16292338 -90.56079102 76.08178711 C-90.57183506 71.87978164 -90.6062137 67.6783087 -90.64596272 63.47649097 C-90.67219423 60.23440105 -90.68048876 56.99243656 -90.68407249 53.75024986 C-90.68892405 52.20219018 -90.70049705 50.65413557 -90.71911049 49.10618019 C-90.83449767 38.87149984 -90.22268998 31.91653111 -83.578125 23.765625 C-62.97817492 4.64956963 -26.86467698 0.12892503 0 0 Z M-32.828125 68.203125 C-33.75544434 68.3690918 -34.68276367 68.53505859 -35.63818359 68.70605469 C-40.43863423 69.46452392 -40.43863423 69.46452392 -44.265625 72.203125 C-38.04061389 74.83713528 -31.81495743 77.46961574 -25.58886719 80.10107422 C-23.47446328 80.99493444 -21.36020293 81.88913434 -19.24609375 82.78369141 C-16.19309306 84.07545632 -13.13956424 85.36596583 -10.0859375 86.65625 C-9.15323029 87.05120667 -8.22052307 87.44616333 -7.259552 87.85308838 C-5.46850639 88.60934103 -3.67503514 89.35987956 -1.87896729 90.10412598 C-0.11298346 90.84678204 1.64184862 91.61644306 3.38531494 92.41052246 C9.54034298 95.12025036 13.36668012 95.78133223 19.88272095 93.42684937 C22.36790077 92.44457879 24.80956526 91.38838506 27.25390625 90.30859375 C28.15251877 89.91996658 29.05113129 89.53133942 29.97697449 89.13093567 C32.83714536 87.89212952 35.69209873 86.64180578 38.546875 85.390625 C41.391969 84.15265012 44.23809571 82.91708431 47.0846405 81.68244934 C48.84997271 80.91579805 50.61429885 80.14682409 52.37739563 79.37504578 C58.11899497 76.86887152 63.90533792 74.49843321 69.734375 72.203125 C66.56671039 69.03546039 62.61112369 68.97526682 58.296875 68.203125 C57.33346191 68.02942383 56.37004883 67.85572266 55.37744141 67.67675781 C26.32348794 62.74891145 -3.83659371 62.97601834 -32.828125 68.203125 Z M6.5234375 162.77612305 C5.70157959 163.12035812 4.87972168 163.4645932 4.03295898 163.81925964 C3.15067627 164.1973024 2.26839355 164.57534515 1.359375 164.96484375 C0.43906494 165.35251419 -0.48124512 165.74018463 -1.42944336 166.13960266 C-4.37770576 167.38328009 -7.3216895 168.63674437 -10.265625 169.890625 C-12.21716928 170.71615381 -14.16898944 171.54103074 -16.12109375 172.36523438 C-19.85166571 173.94120633 -23.58077502 175.52055444 -27.30859375 177.10302734 C-32.95002673 179.49613094 -38.60342258 181.85955256 -44.265625 184.203125 C-41.09793379 187.37081621 -37.14239043 187.4309131 -32.828125 188.203125 C-31.86543701 188.37682617 -30.90274902 188.55052734 -29.91088867 188.72949219 C-0.87668808 193.65673215 29.38733749 193.44468855 58.359375 188.203125 C59.28274658 188.0371582 60.20611816 187.87119141 61.1574707 187.70019531 C65.93064621 186.93630728 65.93064621 186.93630728 69.734375 184.203125 C63.50936389 181.56911472 57.28370743 178.93663426 51.05761719 176.30517578 C48.94321328 175.41131556 46.82895293 174.51711566 44.71484375 173.62255859 C41.66184306 172.33079368 38.60831424 171.04028417 35.5546875 169.75 C34.62198029 169.35504333 33.68927307 168.96008667 32.728302 168.55316162 C30.06661257 167.42928756 27.40088346 166.31550833 24.734375 165.203125 C23.82476013 164.8162854 22.91514526 164.4294458 21.97796631 164.03088379 C20.65638519 163.48047424 20.65638519 163.48047424 19.30810547 162.91894531 C18.52402313 162.58872375 17.7399408 162.2585022 16.93209839 161.91827393 C13.01994508 160.64524191 10.16581571 161.23221008 6.5234375 162.77612305 Z " fill="#63B8F8" transform="translate(115.265625,-0.203125)"/>
<path d="M0 0 C0.95469177 -0.00570007 1.90938354 -0.01140015 2.89300537 -0.01727295 C4.9065238 -0.02666142 6.92005717 -0.03323222 8.93359375 -0.03710938 C11.93518852 -0.04671755 14.93606809 -0.07776018 17.9375 -0.109375 C35.05776446 -0.20340614 52.02382755 1.34123146 68.671875 5.515625 C69.5268457 5.72509766 70.38181641 5.93457031 71.26269531 6.15039062 C79.07718901 8.145705 86.40868714 10.82552108 93.734375 14.203125 C94.58128906 14.59113281 95.42820313 14.97914062 96.30078125 15.37890625 C103.39845498 18.97094635 111.32804911 24.54201224 114.921875 31.828125 C116.49469639 38.36138309 114.78288642 43.33992997 111.41015625 48.9453125 C104.79582325 57.85693132 94.56049988 62.06828398 84.67578125 66.35302734 C83.01461402 67.08041471 81.37225029 67.85048896 79.734375 68.62890625 C78.496875 69.19158203 78.496875 69.19158203 77.234375 69.765625 C76.5640625 70.07628906 75.89375 70.38695313 75.203125 70.70703125 C68.57892495 72.03816006 60.86087718 69.78068998 54.25610352 68.74316406 C42.41409203 66.89444295 30.72993314 65.37945169 18.734375 65.203125 C17.8381543 65.18991211 16.94193359 65.17669922 16.01855469 65.16308594 C8.60413384 65.10726542 1.25349683 65.41696587 -6.140625 65.953125 C-7.29796143 66.03675293 -8.45529785 66.12038086 -9.64770508 66.20654297 C-20.68241931 67.09016597 -31.43766017 68.94775518 -42.265625 71.203125 C-39.92004907 72.76684229 -37.99673243 73.83129959 -35.44360352 74.91137695 C-34.68173233 75.23544022 -33.91986115 75.55950348 -33.13490295 75.89338684 C-32.31308029 76.23923325 -31.49125763 76.58507965 -30.64453125 76.94140625 C-29.78939438 77.30405075 -28.93425751 77.66669525 -28.0532074 78.04032898 C-25.31272279 79.20164211 -22.57044184 80.35864612 -19.828125 81.515625 C-18.01616004 82.28292926 -16.20430982 83.05050452 -14.39257812 83.81835938 C-5.3625049 87.6427337 3.67505889 91.44846812 12.734375 95.203125 C11.08941436 98.49304628 7.48901738 99.15024997 4.21875 100.46875 C3.45193909 100.78463074 2.68512817 101.10051147 1.89508057 101.42596436 C-0.5725883 102.44140913 -3.04383537 103.4477573 -5.515625 104.453125 C-8.73072726 105.76705068 -11.94415116 107.08499949 -15.15625 108.40625 C-15.94435059 108.73015213 -16.73245117 109.05405426 -17.54443359 109.38777161 C-23.18077757 111.71850841 -28.72334965 114.21362855 -34.24511719 116.80517578 C-39.36307128 119.17386355 -44.56053178 121.34683616 -49.765625 123.515625 C-50.80976562 123.95712891 -51.85390625 124.39863281 -52.9296875 124.85351562 C-53.93773437 125.27439453 -54.94578125 125.69527344 -55.984375 126.12890625 C-56.88091797 126.50442627 -57.77746094 126.87994629 -58.70117188 127.2668457 C-61.21686822 128.18532395 -63.62950067 128.75319244 -66.265625 129.203125 C-66.265625 128.543125 -66.265625 127.883125 -66.265625 127.203125 C-67.58046875 126.82027344 -67.58046875 126.82027344 -68.921875 126.4296875 C-77.41120631 123.31561036 -84.72726986 117.01533175 -89.265625 109.203125 C-90.40936927 105.77189218 -90.41366847 103.09170426 -90.44262695 99.47192383 C-90.44919815 98.79183258 -90.45576935 98.11174133 -90.46253967 97.41104126 C-90.48224507 95.16074506 -90.49393097 92.91051562 -90.50390625 90.66015625 C-90.50798178 89.88958075 -90.5120573 89.11900524 -90.51625633 88.32507896 C-90.53710842 84.24398442 -90.55141209 80.16292338 -90.56079102 76.08178711 C-90.57183506 71.87978164 -90.6062137 67.6783087 -90.64596272 63.47649097 C-90.67219423 60.23440105 -90.68048876 56.99243656 -90.68407249 53.75024986 C-90.68892405 52.20219018 -90.70049705 50.65413557 -90.71911049 49.10618019 C-90.83449767 38.87149984 -90.22268998 31.91653111 -83.578125 23.765625 C-62.97817492 4.64956963 -26.86467698 0.12892503 0 0 Z " fill="#107DE1" transform="translate(115.265625,-0.203125)"/>
<path d="M0 0 C8.78716521 1.70788334 17.5102064 2.73522295 26.4375 3.375 C28.10087402 3.49464111 28.10087402 3.49464111 29.79785156 3.61669922 C41.11821621 4.35424329 52.2484605 4.15443613 63.5625 3.375 C64.77711914 3.29209717 65.99173828 3.20919434 67.24316406 3.1237793 C76.01576114 2.45589959 84.55138733 1.23953094 93.14575195 -0.64160156 C103.68951245 -2.86611939 110.62138626 -0.22092451 120.1875 4.25 C121.22068359 4.71148437 122.25386719 5.17296875 123.31835938 5.6484375 C134.030908 10.58747195 141.79159341 16.22146104 147.625 26.5625 C148.84548192 31.56647589 147.99436236 35.63627528 145.75 40.125 C128.13954833 61.25754201 97.02650317 66.34798864 70.96464539 68.90812683 C66.63795611 69.25378628 62.32318846 69.3073028 57.984375 69.328125 C57.02968323 69.33382507 56.07499146 69.33952515 55.09136963 69.34539795 C53.0778512 69.35478642 51.06431783 69.36135722 49.05078125 69.36523438 C46.04918648 69.37484255 43.04830691 69.40588518 40.046875 69.4375 C22.92661054 69.53153114 5.96054745 67.98689354 -10.6875 63.8125 C-11.5424707 63.60302734 -12.39744141 63.39355469 -13.27832031 63.17773438 C-21.09281401 61.18242 -28.42431214 58.50260392 -35.75 55.125 C-36.59691406 54.73699219 -37.44382812 54.34898437 -38.31640625 53.94921875 C-45.32751619 50.40098746 -53.27813807 44.86425754 -56.875 37.6875 C-58.00246814 33.09709402 -58.00530796 28.82455759 -57.75 24.125 C-57.09 24.125 -56.43 24.125 -55.75 24.125 C-55.523125 23.3825 -55.29625 22.64 -55.0625 21.875 C-53.48124115 18.56188621 -51.68160239 17.28880177 -48.75 15.125 C-48.19054688 14.50625 -47.63109375 13.8875 -47.0546875 13.25 C-44.10762203 10.53270574 -40.82831945 8.90759406 -37.25 7.1875 C-36.54238525 6.84267578 -35.83477051 6.49785156 -35.10571289 6.14257812 C-32.99343256 5.12277442 -30.87395161 4.12023754 -28.75 3.125 C-27.60402344 2.58746094 -26.45804688 2.04992187 -25.27734375 1.49609375 C-16.15756165 -2.5507375 -9.56256979 -1.97360163 0 0 Z " fill="#146DD7" transform="translate(82.75,186.875)"/>
<path d="M0 0 C8.4662536 4.87687419 16.53646613 10.13767872 19.66796875 19.83984375 C20.21241222 24.91671872 20.13514495 29.962378 20.05859375 35.05859375 C20.05112145 36.52688828 20.0454332 37.99519286 20.04144287 39.46350098 C20.02626404 43.30403806 19.98705119 47.14395766 19.94262695 50.98425293 C19.90150528 54.9125941 19.88339603 58.84103629 19.86328125 62.76953125 C19.82054762 70.4599151 19.75239276 78.14979248 19.66796875 85.83984375 C17.67650191 83.84837691 17.06448394 82.62084753 15.98046875 80.08984375 C9.83944858 67.85182506 -6.05664541 63.13230376 -18.0078125 58.15625 C-18.8194838 57.81639572 -19.63115509 57.47654144 -20.46742249 57.12638855 C-22.19853908 56.40175543 -23.93000774 55.67796287 -25.6618042 54.95495605 C-28.34333293 53.83512406 -31.02364965 52.71243916 -33.70361328 51.58886719 C-38.2943052 49.66442676 -42.88585181 47.74203747 -47.4777832 45.82055664 C-50.2919264 44.64297245 -53.10593356 43.46506363 -55.91992188 42.28710938 C-65.05418933 38.46388936 -74.18940878 34.64305152 -83.33203125 30.83984375 C-80.81372116 27.88520614 -78.15721178 26.727353 -74.59375 25.265625 C-72.8008252 24.5226416 -72.8008252 24.5226416 -70.97167969 23.76464844 C-69.654322 23.22715197 -68.33693846 22.68971883 -67.01953125 22.15234375 C-65.65883572 21.59100234 -64.29849104 21.02880979 -62.93847656 20.46582031 C-60.76180181 19.56487784 -58.58489865 18.6645311 -56.40689087 17.76681519 C-50.56923539 15.35954818 -44.74683726 12.91730667 -38.9296875 10.4609375 C-38.066353 10.09643997 -37.20301849 9.73194244 -36.31352234 9.35639954 C-32.8862099 7.90888286 -29.45921447 6.46061689 -26.03231812 5.01211548 C-23.6378737 4.00051332 -21.24282766 2.99034817 -18.84765625 1.98046875 C-18.13025772 1.6768895 -17.41285919 1.37331024 -16.67372131 1.06053162 C-6.49182893 -3.22960334 -6.49182893 -3.22960334 0 0 Z " fill="#6FB0EF" transform="translate(211.33203125,130.16015625)"/>
<path d="M0 0 C1.69962347 2.20951051 3.16073219 4.29467568 4.5 6.75 C13.59072051 19.92495727 33.13988124 24.75132802 47.36799622 29.97528076 C58.9044504 34.22639222 70.18872856 39.06307239 81.5 43.875 C83.59492397 44.76332303 85.68997524 45.6513459 87.78515625 46.5390625 C92.85824068 48.68925721 97.92975261 50.84312457 103 53 C101.35503936 56.28992128 97.75464238 56.94712497 94.484375 58.265625 C93.71756409 58.58150574 92.95075317 58.89738647 92.16070557 59.22283936 C89.6930367 60.23828413 87.22178963 61.2446323 84.75 62.25 C81.53489774 63.56392568 78.32147384 64.88187449 75.109375 66.203125 C74.32127441 66.52702713 73.53317383 66.85092926 72.72119141 67.18464661 C67.08484743 69.51538341 61.54227535 72.01050355 56.02050781 74.60205078 C50.90255372 76.97073855 45.70509322 79.14371116 40.5 81.3125 C39.45585938 81.75400391 38.41171875 82.19550781 37.3359375 82.65039062 C36.32789063 83.07126953 35.31984375 83.49214844 34.28125 83.92578125 C33.38470703 84.30130127 32.48816406 84.67682129 31.56445312 85.0637207 C29.04875678 85.98219895 26.63612433 86.55006744 24 87 C24 86.34 24 85.68 24 85 C22.68515625 84.61714844 22.68515625 84.61714844 21.34375 84.2265625 C12.85441869 81.11248536 5.53835514 74.81220675 1 67 C-0.10135545 63.69593365 -0.12036063 61.26356307 -0.11352539 57.78442383 C-0.11341209 55.86277153 -0.11341209 55.86277153 -0.11329651 53.90229797 C-0.10818987 52.50387534 -0.10297387 51.1054531 -0.09765625 49.70703125 C-0.09579089 48.27642364 -0.09436754 46.84581539 -0.09336853 45.41520691 C-0.08955267 41.65213249 -0.07973032 37.88909675 -0.06866455 34.1260376 C-0.05843043 30.28520226 -0.05386662 26.44436067 -0.04882812 22.60351562 C-0.03810722 15.0689928 -0.02104196 7.53450182 0 0 Z " fill="#1E8FE7" transform="translate(25,42)"/>
<path d="M0 0 C0.99 0.33 1.98 0.66 3 1 C0.03 3.97 -2.94 6.94 -6 10 C-6.33 9.34 -6.66 8.68 -7 8 C-6.21625 7.236875 -5.4325 6.47375 -4.625 5.6875 C-1.92742283 3.09108195 -1.92742283 3.09108195 0 0 Z " fill="#2544AF" transform="translate(35,200)"/>
</svg>
